<mxfile host="app.diagrams.net" agent="Mozilla/5.0 (Windows NT 10.0; Win64; x64) AppleWebKit/537.36 (KHTML, like Gecko) Chrome/137.0.0.0 Safari/537.36" version="27.1.5">
  <diagram name="ページ1" id="7ESHI6MgtEWBiusJCCfv">
    <mxGraphModel dx="1032" dy="796" grid="1" gridSize="10" guides="1" tooltips="1" connect="1" arrows="1" fold="1" page="1" pageScale="1" pageWidth="1654" pageHeight="1169" math="0" shadow="0">
      <root>
        <mxCell id="0" />
        <mxCell id="1" parent="0" />
        <mxCell id="M9u--Z018Lu78wC2jnTl-1" value="同化と調節" style="text;html=1;align=center;verticalAlign=middle;whiteSpace=wrap;rounded=0;fillColor=#dae8fc;strokeColor=#6c8ebf;" vertex="1" parent="1">
          <mxGeometry x="40" y="40" width="160" height="40" as="geometry" />
        </mxCell>
        <mxCell id="M9u--Z018Lu78wC2jnTl-2" value="" style="rounded=0;whiteSpace=wrap;html=1;" vertex="1" parent="1">
          <mxGeometry x="40" y="160" width="280" height="160" as="geometry" />
        </mxCell>
        <mxCell id="M9u--Z018Lu78wC2jnTl-3" value="&lt;div&gt;りんご&lt;/div&gt;赤い&lt;div&gt;丸い&lt;/div&gt;&lt;div&gt;果物&lt;/div&gt;" style="ellipse;whiteSpace=wrap;html=1;aspect=fixed;fillColor=#f8cecc;strokeColor=#b85450;" vertex="1" parent="1">
          <mxGeometry x="80" y="190" width="110" height="110" as="geometry" />
        </mxCell>
        <mxCell id="M9u--Z018Lu78wC2jnTl-4" value="現在の認知構造" style="text;html=1;align=center;verticalAlign=middle;whiteSpace=wrap;rounded=0;fillColor=#d5e8d4;strokeColor=#82b366;" vertex="1" parent="1">
          <mxGeometry x="120" y="120" width="120" height="30" as="geometry" />
        </mxCell>
        <mxCell id="M9u--Z018Lu78wC2jnTl-5" value="" style="shape=flexArrow;endArrow=classic;html=1;rounded=0;" edge="1" parent="1">
          <mxGeometry width="50" height="50" relative="1" as="geometry">
            <mxPoint x="340" y="239.5" as="sourcePoint" />
            <mxPoint x="390" y="239.5" as="targetPoint" />
          </mxGeometry>
        </mxCell>
        <mxCell id="M9u--Z018Lu78wC2jnTl-6" value="" style="rounded=0;whiteSpace=wrap;html=1;" vertex="1" parent="1">
          <mxGeometry x="400" y="160" width="280" height="160" as="geometry" />
        </mxCell>
        <mxCell id="M9u--Z018Lu78wC2jnTl-7" value="&lt;div&gt;りんご&lt;/div&gt;赤い&lt;div&gt;丸い&lt;/div&gt;&lt;div&gt;果物&lt;/div&gt;" style="ellipse;whiteSpace=wrap;html=1;aspect=fixed;fillColor=#f8cecc;strokeColor=#b85450;" vertex="1" parent="1">
          <mxGeometry x="440" y="190" width="110" height="110" as="geometry" />
        </mxCell>
        <mxCell id="M9u--Z018Lu78wC2jnTl-8" value="&lt;div&gt;？&lt;/div&gt;青い&lt;div&gt;丸い&lt;/div&gt;&lt;div&gt;果物&lt;/div&gt;" style="ellipse;whiteSpace=wrap;html=1;aspect=fixed;fillColor=#dae8fc;strokeColor=#6c8ebf;" vertex="1" parent="1">
          <mxGeometry x="550" y="190" width="110" height="110" as="geometry" />
        </mxCell>
        <mxCell id="M9u--Z018Lu78wC2jnTl-9" value="認知の不均衡" style="text;html=1;align=center;verticalAlign=middle;whiteSpace=wrap;rounded=0;fillColor=#d5e8d4;strokeColor=#82b366;" vertex="1" parent="1">
          <mxGeometry x="470" y="120" width="150" height="30" as="geometry" />
        </mxCell>
        <mxCell id="M9u--Z018Lu78wC2jnTl-10" value="" style="rounded=0;whiteSpace=wrap;html=1;" vertex="1" parent="1">
          <mxGeometry x="270" y="390" width="410" height="220" as="geometry" />
        </mxCell>
        <mxCell id="M9u--Z018Lu78wC2jnTl-11" value="" style="shape=flexArrow;endArrow=classic;html=1;rounded=0;" edge="1" parent="1">
          <mxGeometry width="50" height="50" relative="1" as="geometry">
            <mxPoint x="545" y="340" as="sourcePoint" />
            <mxPoint x="545" y="370" as="targetPoint" />
          </mxGeometry>
        </mxCell>
        <mxCell id="M9u--Z018Lu78wC2jnTl-16" value="" style="ellipse;whiteSpace=wrap;html=1;fillColor=#f8cecc;strokeColor=#b85450;" vertex="1" parent="1">
          <mxGeometry x="300" y="405" width="360" height="190" as="geometry" />
        </mxCell>
        <mxCell id="M9u--Z018Lu78wC2jnTl-12" value="&lt;div&gt;赤りんご&lt;/div&gt;赤い" style="ellipse;whiteSpace=wrap;html=1;aspect=fixed;fillColor=#f8cecc;strokeColor=#b85450;opacity=50;" vertex="1" parent="1">
          <mxGeometry x="340" y="445" width="110" height="110" as="geometry" />
        </mxCell>
        <mxCell id="M9u--Z018Lu78wC2jnTl-13" value="&lt;div&gt;青りんご&lt;/div&gt;青い" style="ellipse;whiteSpace=wrap;html=1;aspect=fixed;fillColor=#dae8fc;strokeColor=#6c8ebf;opacity=50;" vertex="1" parent="1">
          <mxGeometry x="520" y="445" width="110" height="110" as="geometry" />
        </mxCell>
        <mxCell id="M9u--Z018Lu78wC2jnTl-14" value="りんご" style="text;html=1;align=center;verticalAlign=middle;whiteSpace=wrap;rounded=0;" vertex="1" parent="1">
          <mxGeometry x="450" y="415" width="60" height="30" as="geometry" />
        </mxCell>
        <mxCell id="M9u--Z018Lu78wC2jnTl-17" value="丸い&lt;div&gt;果物&lt;/div&gt;" style="text;html=1;align=center;verticalAlign=middle;whiteSpace=wrap;rounded=0;" vertex="1" parent="1">
          <mxGeometry x="450" y="480" width="60" height="30" as="geometry" />
        </mxCell>
        <mxCell id="M9u--Z018Lu78wC2jnTl-18" value="新しいの認知構造" style="text;html=1;align=center;verticalAlign=middle;whiteSpace=wrap;rounded=0;fillColor=#d5e8d4;strokeColor=#82b366;" vertex="1" parent="1">
          <mxGeometry x="380" y="350" width="120" height="30" as="geometry" />
        </mxCell>
        <mxCell id="M9u--Z018Lu78wC2jnTl-19" value="調節" style="text;html=1;align=center;verticalAlign=middle;whiteSpace=wrap;rounded=0;" vertex="1" parent="1">
          <mxGeometry x="575" y="340" width="60" height="30" as="geometry" />
        </mxCell>
      </root>
    </mxGraphModel>
  </diagram>
</mxfile>
